<?xml version="1.0" encoding="UTF-8" standalone="no"?>
<svg
   width="24"
   height="24"
   viewBox="0 0 24 24"
   version="1.1"
   id="svg2"
   sodipodi:docname="webcam.svg"
   inkscape:version="1.4.4 (dcaf3e7, 2026-05-05)"
   xmlns:inkscape="http://www.inkscape.org/namespaces/inkscape"
   xmlns:sodipodi="http://sodipodi.sourceforge.net/DTD/sodipodi-0.dtd"
   xmlns="http://www.w3.org/2000/svg"
   xmlns:svg="http://www.w3.org/2000/svg"
   xmlns:rdf="http://www.w3.org/1999/02/22-rdf-syntax-ns#"
   xmlns:cc="http://creativecommons.org/ns#"
   xmlns:dc="http://purl.org/dc/elements/1.1/">
  <sodipodi:namedview
     id="namedview2"
     pagecolor="#ffffff"
     bordercolor="#000000"
     borderopacity="0.25"
     inkscape:showpageshadow="2"
     inkscape:pageopacity="0.0"
     inkscape:pagecheckerboard="true"
     inkscape:deskcolor="#d1d1d1"
     showborder="false"
     inkscape:zoom="11.885714"
     inkscape:cx="13.377404"
     inkscape:cy="20.78125"
     inkscape:window-width="1512"
     inkscape:window-height="921"
     inkscape:window-x="0"
     inkscape:window-y="33"
     inkscape:window-maximized="1"
     inkscape:current-layer="svg2" />
  <defs
     id="defs1">
    <style
       id="style1">.webcams-class1{opacity:0.37;}.webcams-class2{fill:#fff;}.webcams-class3{fill:none;stroke:#191919;stroke-miterlimit:10;}</style>
    <filter
       style="color-interpolation-filters:sRGB;"
       inkscape:label="Drop Shadow"
       id="filter24"
       x="-0.16408669"
       y="-0.26740666"
       width="1.380805"
       height="1.6004036">
      <feFlood
         result="flood"
         in="SourceGraphic"
         flood-opacity="0.603922"
         flood-color="rgb(0,0,0)"
         id="feFlood23" />
      <feGaussianBlur
         result="blur"
         in="SourceGraphic"
         stdDeviation="2.000000"
         id="feGaussianBlur23" />
      <feOffset
         result="offset"
         in="blur"
         dx="1.700000"
         dy="1.300000"
         id="feOffset23" />
      <feComposite
         result="comp1"
         operator="in"
         in="flood"
         in2="offset"
         id="feComposite23" />
      <feComposite
         result="comp2"
         operator="over"
         in="SourceGraphic"
         in2="comp1"
         id="feComposite24" />
    </filter>
  </defs>
  <title
     id="title1">Element 12</title>
  <g
     id="Ebene_2"
     data-name="Ebene 2"
     transform="matrix(0.6,0,0,0.6,0,3.7019231)"
     style="filter:url(#filter24)">
    <g
       id="Ebene_1-2"
       data-name="Ebene 1">
      <path
         class="webcams-class2"
         d="M 31.6,4.18 25.1,7.92 V 6.71 A 3.88,3.88 0 0 0 21.22,2.84 H 5.41 A 3.87,3.87 0 0 0 1.54,6.71 v 12.07 a 3.88,3.88 0 0 0 3.87,3.88 h 15.81 a 3.88,3.88 0 0 0 3.88,-3.88 v -1.2 l 6.5,3.73 c 1.23,0.71 2.24,0.13 2.24,-1.29 V 5.48 c 0,-1.42 -1.01,-2 -2.24,-1.3 z"
         id="path1" />
      <path
         class="webcams-class3"
         d="M 31.6,4.18 25.1,7.92 V 6.71 A 3.88,3.88 0 0 0 21.22,2.84 H 5.41 A 3.87,3.87 0 0 0 1.54,6.71 v 12.07 a 3.88,3.88 0 0 0 3.87,3.88 h 15.81 a 3.88,3.88 0 0 0 3.88,-3.88 v -1.2 l 6.5,3.73 c 1.23,0.71 2.24,0.13 2.24,-1.29 V 5.48 c 0,-1.42 -1.01,-2 -2.24,-1.3 z"
         id="path2" />
    </g>
  </g>
  <metadata
     id="metadata2">
    <rdf:RDF>
      <cc:Work
         rdf:about="">
        <dc:title>Element 12</dc:title>
      </cc:Work>
    </rdf:RDF>
  </metadata>
</svg>
